<svg width="28" height="32" viewBox="0 0 28 32" fill="none" xmlns="http://www.w3.org/2000/svg">
<g filter="url(#filter0_dd_409_317)">
<path d="M4.65046 8.54815L12.7372 1.15457C13.4642 0.489887 14.5669 0.453533 15.3361 1.06889L23.2494 7.39951C23.7238 7.77906 24 8.35368 24 8.96125V22C24 23.1046 23.1046 24 22 24H6C4.89543 24 4 23.1046 4 22V10.0242C4 9.46269 4.23605 8.92704 4.65046 8.54815Z" fill="url(#paint0_linear_409_317)" shape-rendering="crispEdges"/>
<path d="M4.65046 8.54815L12.7372 1.15457C13.4642 0.489887 14.5669 0.453533 15.3361 1.06889L23.2494 7.39951C23.7238 7.77906 24 8.35368 24 8.96125V22C24 23.1046 23.1046 24 22 24H6C4.89543 24 4 23.1046 4 22V10.0242C4 9.46269 4.23605 8.92704 4.65046 8.54815Z" stroke="#562D2D" shape-rendering="crispEdges"/>
</g>
<path d="M6.5 9L12.6786 3.23328C13.429 2.53291 14.5878 2.51431 15.3603 3.19024L22 9" stroke="white"/>
<defs>
<filter id="filter0_dd_409_317" x="0" y="0.630859" width="28" height="31.3691" filterUnits="userSpaceOnUse" color-interpolation-filters="sRGB">
<feFlood flood-opacity="0" result="BackgroundImageFix"/>
<feColorMatrix in="SourceAlpha" type="matrix" values="0 0 0 0 0 0 0 0 0 0 0 0 0 0 0 0 0 0 127 0" result="hardAlpha"/>
<feOffset dy="4"/>
<feGaussianBlur stdDeviation="2"/>
<feComposite in2="hardAlpha" operator="out"/>
<feColorMatrix type="matrix" values="0 0 0 0 0 0 0 0 0 0 0 0 0 0 0 0 0 0 0.25 0"/>
<feBlend mode="normal" in2="BackgroundImageFix" result="effect1_dropShadow_409_317"/>
<feColorMatrix in="SourceAlpha" type="matrix" values="0 0 0 0 0 0 0 0 0 0 0 0 0 0 0 0 0 0 127 0" result="hardAlpha"/>
<feOffset dy="4"/>
<feGaussianBlur stdDeviation="2"/>
<feComposite in2="hardAlpha" operator="out"/>
<feColorMatrix type="matrix" values="0 0 0 0 0 0 0 0 0 0 0 0 0 0 0 0 0 0 0.25 0"/>
<feBlend mode="normal" in2="effect1_dropShadow_409_317" result="effect2_dropShadow_409_317"/>
<feBlend mode="normal" in="SourceGraphic" in2="effect2_dropShadow_409_317" result="shape"/>
</filter>
<linearGradient id="paint0_linear_409_317" x1="14" y1="0" x2="14" y2="24" gradientUnits="userSpaceOnUse">
<stop stop-color="#70228B" stop-opacity="0.49"/>
<stop offset="1" stop-color="#F46565"/>
</linearGradient>
</defs>
</svg>
